# xmcd
#
# Track frame offsets:
#	150
#	13535
#	39492
#	54592
#	73662
#	102002
#	118707
#	134515
#	146550
#	166845
#	185192
#	204412
#	230655
#	245837
#	263695
#	283085
#	300777
#	318972
#
# Disc length: 4492 seconds
#
# Revision: 1
# Processed by: cddbd v1.4PL0 Copyright (c) Steve Scherf et al.
# Submitted via: audiograbber 1.81.02
#
DISCID=03118a12
DTITLE=Dramatics - The ABC Years 1974 - 1980
DYEAR=1995
DGENRE=Soul
TTITLE0=Choosing Up On You
TTITLE1=Door To Your Heart
TTITLE2=Don't Make No Promises
TTITLE3=Love Is Missing From Our Lives (With The Dells)
TTITLE4=Me and Mrs. Jones
TTITLE5=(I'm Going By) The Stars In Your Eyes
TTITLE6=You're Fooling You
TTITLE7=Finger Fever
TTITLE8=Be My Girl
TTITLE9=I Can't Get Over You
TTITLE10=I Get Carried Away
TTITLE11=Shake It Well
TTITLE12=Ocean Of Thoughts And Dreams
TTITLE13=My Ship Won't Sail Without You
TTITLE14=Spaced Out Over You
TTITLE15=Stop Your Weeping
TTITLE16=Do What You Want To Do
TTITLE17=Welcome Back Home
EXTD=Rare CD
EXTT0=
EXTT1=
EXTT2=
EXTT3=
EXTT4=
EXTT5=
EXTT6=
EXTT7=
EXTT8=
EXTT9=
EXTT10=
EXTT11=
EXTT12=
EXTT13=
EXTT14=
EXTT15=
EXTT16=
EXTT17=
PLAYORDER=
